<svg width="20" height="20" viewBox="0 0 20 20" fill="none" xmlns="http://www.w3.org/2000/svg">
<path d="M20 20H19.3333C16.5931 19.9999 13.9448 19.0119 11.874 17.2174L11.1728 16.6098C10.783 16.6476 10.3916 16.6666 10 16.6667C7.35304 16.6667 4.85896 15.8154 2.97717 14.2696C1.05729 12.6926 0 10.5844 0 8.33333C0 6.08229 1.05729 3.97404 2.97717 2.39704C4.85896 0.851292 7.35304 0 10 0C12.647 0 15.141 0.851292 17.0228 2.39704C18.9427 3.97404 20 6.08229 20 8.33333C19.9991 9.52993 19.6971 10.707 19.1218 11.7563C18.6224 12.6701 17.9574 13.4831 17.1608 14.1537C17.7561 15.6677 18.656 17.0433 19.8047 18.1953L20 18.3905V20ZM11.6023 15.2176L12.7472 16.2098C14.3263 17.5782 16.2923 18.4209 18.3722 18.6207C17.2246 17.3379 16.3384 15.8436 15.7632 14.2214L15.58 13.7021L15.9638 13.4076C17.7068 12.0699 18.6667 10.2679 18.6667 8.33333C18.6667 4.4735 14.7788 1.33333 10 1.33333C5.22121 1.33333 1.33333 4.4735 1.33333 8.33333C1.33333 12.1932 5.22121 15.3333 10 15.3333C10.4373 15.3333 10.8742 15.3067 11.3083 15.2536L11.6023 15.2176Z" fill="black"/>
</svg>
