<svg width="51" height="50" viewBox="0 0 51 50" fill="none" xmlns="http://www.w3.org/2000/svg">
<path d="M38 31.25H13L4.66663 39.5833V6.24999C4.66663 5.69746 4.88612 5.16755 5.27682 4.77685C5.66752 4.38615 6.19743 4.16666 6.74996 4.16666H38C38.5525 4.16666 39.0824 4.38615 39.4731 4.77685C39.8638 5.16755 40.0833 5.69746 40.0833 6.24999V29.1667C40.0833 29.7192 39.8638 30.2491 39.4731 30.6398C39.0824 31.0305 38.5525 31.25 38 31.25ZM48.4166 18.75V47.9167L40.0833 39.5833H17.1666C16.6141 39.5833 16.0842 39.3638 15.6935 38.9731C15.3028 38.5824 15.0833 38.0525 15.0833 37.5V35.4167H44.25V16.6667H46.3333C46.8858 16.6667 47.4157 16.8862 47.8064 17.2769C48.1971 17.6676 48.4166 18.1975 48.4166 18.75ZM17.5625 8.33332C15.75 8.33332 14.2916 8.74999 13.1666 9.56249C12.0833 10.4167 11.5416 11.6042 11.5625 13.25L11.5833 13.3125H15.6041C15.625 12.6875 15.8125 12.2083 16.1875 11.875C16.5732 11.5551 17.0614 11.385 17.5625 11.3958C18.2083 11.3958 18.75 11.6042 19.125 11.9792C19.5 12.375 19.6666 12.9167 19.6666 13.5417C19.6666 14.2083 19.5208 14.7708 19.1875 15.25C18.8958 15.7292 18.4583 16.1458 17.9166 16.4792C16.8541 17.1875 16.125 17.8125 15.7291 18.375C15.3125 18.9167 15.0833 19.7917 15.0833 20.8333H19.25C19.25 20.1875 19.3333 19.6667 19.5208 19.2917C19.7083 18.9167 20.0625 18.5417 20.5833 18.2083C21.5208 17.7083 22.2916 17.1042 22.8958 16.2708C23.5 15.4375 23.8125 14.5833 23.8125 13.5417C23.8125 11.9583 23.25 10.6875 22.125 9.74999C21.0208 8.81249 19.5 8.33332 17.5625 8.33332ZM15.0833 22.9167V27.0833H19.25V22.9167H15.0833ZM27.5833 27.0833H31.75V22.9167H27.5833V27.0833ZM27.5833 8.33332V20.8333H31.75V8.33332H27.5833Z" fill="#575B5E"/>
</svg>
