<svg width="18" height="18" viewBox="0 0 18 18" fill="none" xmlns="http://www.w3.org/2000/svg">
<path d="M14.2478 15C7.84951 15.009 2.99326 10.095 3.00001 3.75225C3.00001 3.3375 3.33601 3 3.75001 3H5.73001C6.10126 3 6.41701 3.273 6.47176 3.6405C6.60233 4.52179 6.8587 5.37979 7.23301 6.18825L7.31026 6.35475C7.36215 6.46679 7.37331 6.59343 7.34182 6.71282C7.31033 6.83222 7.23816 6.93688 7.13776 7.00875C6.52426 7.44675 6.29026 8.328 6.76801 9.015C7.36726 9.8775 8.12251 10.6335 8.98501 11.2327C9.67276 11.7098 10.554 11.4757 10.9913 10.863C11.0631 10.7623 11.1678 10.6899 11.2874 10.6582C11.4069 10.6266 11.5338 10.6377 11.646 10.6898L11.8118 10.7662C12.6203 11.1412 13.4783 11.3977 14.3595 11.5282C14.727 11.583 15 11.8988 15 12.2708V14.25C15 14.3486 14.9806 14.4461 14.9428 14.5372C14.9051 14.6282 14.8498 14.7109 14.7801 14.7806C14.7103 14.8502 14.6276 14.9055 14.5365 14.9431C14.4454 14.9808 14.3478 15.0001 14.2493 15H14.2478Z" fill="#F246BF"/>
</svg>
