<svg width="50" height="50" viewBox="0 0 50 50" fill="none" xmlns="http://www.w3.org/2000/svg">
<rect width="50" height="50" rx="25" fill="#A6AEB0"/>
<circle cx="25" cy="25" r="14.5" fill="#A6AEB0" stroke="white"/>
<g clip-path="url(#clip0_1_110)">
<path d="M21.6601 19.8728C21.6148 19.8145 21.5575 19.7664 21.4921 19.7319C21.4268 19.6974 21.3548 19.6772 21.2811 19.6726C21.2073 19.668 21.1334 19.6792 21.0643 19.7054C20.9951 19.7315 20.9324 19.7721 20.8801 19.8244L20.0856 20.6198C19.7144 20.9917 19.5776 21.5181 19.7398 21.9799C20.4127 23.8915 21.5074 25.627 22.9426 27.0578C24.3734 28.493 26.109 29.5877 28.0205 30.2606C28.4824 30.4228 29.0087 30.286 29.3807 29.9148L30.1752 29.1203C30.2275 29.068 30.2681 29.0053 30.2943 28.9362C30.3205 28.867 30.3316 28.7931 30.3271 28.7194C30.3225 28.6456 30.3023 28.5736 30.2677 28.5083C30.2332 28.4429 30.1852 28.3857 30.1268 28.3403L28.354 26.9617C28.2917 26.9134 28.2192 26.8798 28.142 26.8636C28.0648 26.8473 27.9849 26.8488 27.9083 26.868L26.2254 27.2883C26.0008 27.3444 25.7655 27.3415 25.5423 27.2797C25.3192 27.2178 25.1159 27.0993 24.9521 26.9356L23.0648 25.0475C22.901 24.8839 22.7823 24.6806 22.7203 24.4574C22.6584 24.2343 22.6553 23.9989 22.7113 23.7742L23.1325 22.0913C23.1516 22.0148 23.1531 21.9349 23.1369 21.8577C23.1206 21.7805 23.0871 21.708 23.0387 21.6456L21.6601 19.8728ZM20.3 19.245C20.4344 19.1105 20.596 19.0061 20.7739 18.9388C20.9518 18.8715 21.142 18.8429 21.3318 18.8547C21.5217 18.8666 21.7068 18.9187 21.875 19.0075C22.0431 19.0964 22.1904 19.2201 22.3071 19.3703L23.6857 21.1423C23.9386 21.4673 24.0277 21.8908 23.9278 22.2904L23.5075 23.9732C23.4857 24.0604 23.4869 24.1517 23.5109 24.2383C23.5348 24.3249 23.5808 24.4038 23.6442 24.4673L25.5323 26.3554C25.596 26.419 25.675 26.465 25.7617 26.489C25.8484 26.513 25.9399 26.5141 26.0272 26.4922L27.7093 26.0719C27.9065 26.0226 28.1123 26.0187 28.3112 26.0607C28.5101 26.1026 28.6969 26.1892 28.8574 26.3139L30.6294 27.6925C31.2664 28.1881 31.3248 29.1295 30.7546 29.6989L29.9601 30.4935C29.3914 31.0621 28.5415 31.3119 27.7493 31.0329C25.7215 30.3194 23.8804 29.1586 22.3625 27.6364C20.8404 26.1187 19.6795 24.2779 18.966 22.2504C18.6878 21.4589 18.9375 20.6082 19.5062 20.0396L20.3007 19.245H20.3Z" fill="white"/>
</g>
<defs>
<clipPath id="clip0_1_110">
<rect width="12.2951" height="12.2951" fill="white" transform="translate(18.8525 18.8525)"/>
</clipPath>
</defs>
</svg>
