<svg width="51" height="50" viewBox="0 0 51 50" fill="none" xmlns="http://www.w3.org/2000/svg">
<g clip-path="url(#clip0_1_78)">
<path d="M11.9188 4.15001C11.7343 3.9127 11.5014 3.71736 11.2356 3.57696C10.9699 3.43656 10.6773 3.35432 10.3773 3.3357C10.0772 3.31708 9.77672 3.3625 9.49562 3.46896C9.21452 3.57541 8.95929 3.74046 8.74688 3.95313L5.51563 7.18751C4.00626 8.70001 3.45001 10.8406 4.10938 12.7188C6.84607 20.4925 11.2978 27.5503 17.1344 33.3688C22.9529 39.2052 30.0107 43.657 37.7844 46.3938C39.6625 47.0531 41.8031 46.4969 43.3156 44.9875L46.5469 41.7563C46.7596 41.5438 46.9246 41.2886 47.0311 41.0075C47.1375 40.7264 47.1829 40.4259 47.1643 40.1259C47.1457 39.8259 47.0635 39.5333 46.9231 39.2675C46.7827 39.0017 46.5873 38.7689 46.35 38.5844L39.1406 32.9781C38.8871 32.7815 38.5922 32.645 38.2782 32.579C37.9643 32.5129 37.6394 32.519 37.3281 32.5969L30.4844 34.3063C29.5709 34.5346 28.6138 34.5225 27.7064 34.2711C26.799 34.0197 25.9721 33.5377 25.3063 32.8719L17.6313 25.1938C16.9649 24.5282 16.4823 23.7015 16.2304 22.7941C15.9784 21.8866 15.9658 20.9294 16.1938 20.0156L17.9063 13.1719C17.9841 12.8606 17.9902 12.5357 17.9242 12.2218C17.8581 11.9078 17.7216 11.6129 17.525 11.3594L11.9188 4.15001ZM6.38751 1.59688C6.93437 1.04985 7.59134 0.625414 8.31482 0.35176C9.03829 0.0781066 9.8117 -0.0385038 10.5837 0.00967208C11.3557 0.057848 12.1086 0.269708 12.7924 0.631184C13.4763 0.992659 14.0754 1.49548 14.55 2.10626L20.1563 9.31251C21.1844 10.6344 21.5469 12.3563 21.1406 13.9813L19.4313 20.825C19.3429 21.1795 19.3477 21.5508 19.4451 21.9028C19.5426 22.2549 19.7294 22.5758 19.9875 22.8344L27.6656 30.5125C27.9245 30.7711 28.2459 30.9583 28.5986 31.0557C28.9513 31.1532 29.3232 31.1577 29.6781 31.0688L36.5188 29.3594C37.3207 29.1589 38.1577 29.1433 38.9665 29.3138C39.7753 29.4844 40.5348 29.8366 41.1875 30.3438L48.3938 35.95C50.9844 37.9656 51.2219 41.7938 48.9031 44.1094L45.6719 47.3406C43.3594 49.6531 39.9031 50.6688 36.6813 49.5344C28.435 46.6329 20.9477 41.912 14.775 35.7219C8.58528 29.5501 3.86441 22.0639 0.962507 13.8188C-0.168743 10.6 0.846882 7.14063 3.15938 4.82813L6.39063 1.59688H6.38751Z" fill="#575B5E"/>
</g>
<defs>
<clipPath id="clip0_1_78">
<rect width="50" height="50" fill="white" transform="translate(0.5)"/>
</clipPath>
</defs>
</svg>
