<svg width="51" height="38" viewBox="0 0 51 38" fill="none" xmlns="http://www.w3.org/2000/svg">
<path d="M0.5 6.5C0.5 4.8424 1.15848 3.25268 2.33058 2.08058C3.50269 0.90848 5.0924 0.25 6.75 0.25H44.25C45.9076 0.25 47.4973 0.90848 48.6694 2.08058C49.8415 3.25268 50.5 4.8424 50.5 6.5V31.5C50.5 33.1576 49.8415 34.7473 48.6694 35.9194C47.4973 37.0915 45.9076 37.75 44.25 37.75H6.75C5.0924 37.75 3.50269 37.0915 2.33058 35.9194C1.15848 34.7473 0.5 33.1576 0.5 31.5V6.5ZM6.75 3.375C5.9212 3.375 5.12634 3.70424 4.54029 4.29029C3.95424 4.87634 3.625 5.6712 3.625 6.5V7.17812L25.5 20.3031L47.375 7.17812V6.5C47.375 5.6712 47.0458 4.87634 46.4597 4.29029C45.8737 3.70424 45.0788 3.375 44.25 3.375H6.75ZM47.375 10.8219L32.6625 19.65L47.375 28.7031V10.8219ZM47.2687 32.3094L29.6438 21.4625L25.5 23.9469L21.3562 21.4625L3.73125 32.3063C3.90883 32.9712 4.30099 33.559 4.84684 33.9783C5.3927 34.3976 6.0617 34.6249 6.75 34.625H44.25C44.9379 34.6251 45.6066 34.3982 46.1524 33.9795C46.6982 33.5609 47.0906 32.9738 47.2687 32.3094ZM3.625 28.7031L18.3375 19.65L3.625 10.8219V28.7031Z" fill="#575B5E"/>
</svg>
