<svg width="20" height="20" viewBox="0 0 20 20" fill="none" xmlns="http://www.w3.org/2000/svg">
<path d="M18.068 12.3555L15.5546 10.7109L16.5223 8.9368C16.7557 8.4938 16.878 8.00073 16.8786 7.5V4.6875C16.8806 3.89669 16.6515 3.12252 16.2196 2.46006C15.7877 1.7976 15.1718 1.27569 14.4474 0.958414C13.723 0.641142 12.9217 0.542318 12.142 0.67408C11.3622 0.805841 10.6379 1.16245 10.058 1.70012L10.9075 2.61719C11.3093 2.24565 11.8109 1.99945 12.3506 1.90875C12.8903 1.81806 13.4447 1.88682 13.9459 2.10661C14.4471 2.32639 14.8733 2.68765 15.1722 3.14609C15.4711 3.60453 15.6297 4.14023 15.6286 4.6875V7.5C15.6285 7.79157 15.5587 8.07888 15.4249 8.33797L13.9048 11.125L17.3836 13.4013C17.6132 13.5516 17.8017 13.7569 17.9318 13.9985C18.0619 14.2402 18.1296 14.5105 18.1286 14.785V16.875H15.3161V18.125H19.3786V14.7849C19.3799 14.3028 19.2607 13.8281 19.0318 13.4038C18.8029 12.9795 18.4716 12.6192 18.068 12.3555Z" fill="black"/>
<path d="M12.443 13.6055L9.92961 11.9609L10.8973 10.1868C11.1307 9.7438 11.253 9.25073 11.2536 8.75V5.9375C11.2528 4.85947 10.8244 3.82577 10.0624 3.06319C9.30046 2.3006 8.2671 1.87141 7.18906 1.86977C4.95012 1.86977 3.12863 3.69457 3.12863 5.9375V8.75C3.12625 9.2505 3.24719 9.74388 3.48078 10.1865L4.45375 11.9703L1.95496 13.6055C1.55184 13.8687 1.22084 14.2285 0.992002 14.6521C0.763162 15.0757 0.643725 15.5498 0.644531 16.0313L0.625 19.375H13.7536V16.0349C13.7549 15.5528 13.6357 15.0781 13.4068 14.6538C13.1779 14.2295 12.8466 13.8692 12.443 13.6055ZM12.5036 18.125H1.88227L1.89437 16.0349C1.89343 15.7605 1.96109 15.4901 2.09121 15.2485C2.22132 15.0069 2.40977 14.8016 2.63941 14.6513L6.10355 12.3845L4.57812 9.58797C4.44588 9.3285 4.37749 9.04122 4.37863 8.75V5.9375C4.37863 5.19158 4.67495 4.47621 5.20239 3.94876C5.72984 3.42132 6.44521 3.125 7.19113 3.125C7.93705 3.125 8.65242 3.42132 9.17987 3.94876C9.70732 4.47621 10.0036 5.19158 10.0036 5.9375V8.75C10.0035 9.04157 9.93367 9.32888 9.79992 9.58797L8.27977 12.375L11.7586 14.6513C11.9882 14.8016 12.1767 15.0069 12.3068 15.2485C12.4369 15.4902 12.5046 15.7605 12.5036 16.035V18.125Z" fill="black"/>
</svg>
